<svg xmlns="http://www.w3.org/2000/svg" width="50" height="50" viewBox="0 0 50 50">
  <defs>
    <linearGradient id="cloudGrad" x1="0%" y1="0%" x2="100%" y2="100%">
      <stop offset="0%" stop-color="#3b82f6"/> <stop offset="50%" stop-color="#8b5cf6"/> <stop offset="100%" stop-color="#10b981"/> </linearGradient>
    
    <linearGradient id="codeGrad" x1="0%" y1="0%" x2="100%" y2="0%">
      <stop offset="0%" stop-color="#f1f5f9"/> <stop offset="100%" stop-color="#e2e8f0"/> </linearGradient>
    
    <filter id="glow" x="-20%" y="-20%" width="140%" height="140%">
      <feGaussianBlur stdDeviation="1.5" result="blur"/> <feMerge>
        <feMergeNode in="blur"/>
        <feMergeNode in="SourceGraphic"/>
      </feMerge>
    </filter>
  </defs>

  <g transform="translate(-2, 2.5)">
    <path d="M38.5 35H12.5C7.8 35 4 31.2 4 26.5S7.8 18 12.5 18c.5 0 1 .1 1.5.2C15.8 13.4 20.8 10 26.5 10c7.2 0 13.2 5.3 14.3 12.2 1.3-1.1 3-1.7 4.7-1.7 4.1 0 7.5 3.4 7.5 7.5S49.6 35 45.5 35h-7z" 
          fill="url(#cloudGrad)" 
          opacity="0.95"/> <text x="27" y="24.5" 
          font-family="monospace" 
          font-size="13" 
          font-weight="bold" 
          fill="url(#codeGrad)" 
          text-anchor="middle" 
          dominant-baseline="middle" 
          filter="url(#glow)">&lt;/&gt;</text> </g>
</svg>